<svg width="525" height="232" viewBox="0 0 525 232" fill="none" xmlns="http://www.w3.org/2000/svg">
<path d="M439.549 231.629C392.02 231.629 358.526 196.948 358.526 148.268C358.526 99.5874 392.02 64.9067 439.549 64.9067C487.078 64.9067 520.572 99.5874 520.572 148.268C520.572 196.948 487.078 231.629 439.549 231.629ZM404.461 147.949C404.461 172.13 419.134 188.994 439.549 188.994C459.965 188.994 474.638 172.13 474.638 147.949C474.638 123.768 459.965 106.905 439.549 106.905C419.134 106.905 404.461 123.768 404.461 147.949Z" fill="#D8C2F5"/>
<path d="M286.357 227.811V11.4546H331.015V227.811H286.357Z" fill="#D8C2F5"/>
<path d="M210.24 68.725H254.898V227.811H210.24V68.725ZM206.412 26.7264C206.412 11.136 217.257 0 232.569 0C247.88 0 258.726 11.136 258.726 26.7264C258.726 42.3168 247.88 53.4528 232.569 53.4528C217.257 53.4528 206.412 42.3168 206.412 26.7264Z" fill="#D8C2F5"/>
<path d="M131.528 227.81V141.268H49.8677V227.81H2.65759V20.999H49.8677V103.087H131.528V20.999H178.739V227.81H131.528Z" fill="#D8C2F5"/>
</svg>
