<svg width="80" height="36" viewBox="0 0 80 36" fill="none" xmlns="http://www.w3.org/2000/svg">
<path d="M66.9789 35.3863C59.7364 35.3863 54.6326 30.088 54.6326 22.6511C54.6326 15.2141 59.7364 9.91589 66.9789 9.91589C74.2214 9.91589 79.3252 15.2141 79.3252 22.6511C79.3252 30.088 74.2214 35.3863 66.9789 35.3863ZM61.6321 22.6025C61.6321 26.2966 63.868 28.8729 66.9789 28.8729C70.0898 28.8729 72.3257 26.2966 72.3257 22.6025C72.3257 18.9083 70.0898 16.3321 66.9789 16.3321C63.868 16.3321 61.6321 18.9083 61.6321 22.6025Z" fill="#F7F4FB"/>
<path d="M43.6354 34.803V1.74988H50.4404V34.803H43.6354Z" fill="#F7F4FB"/>
<path d="M32.0365 10.4992H38.8416V34.803H32.0365V10.4992ZM31.4532 4.08304C31.4532 1.70126 33.1059 0 35.4391 0C37.7722 0 39.4249 1.70126 39.4249 4.08304C39.4249 6.46481 37.7722 8.16607 35.4391 8.16607C33.1059 8.16607 31.4532 6.46481 31.4532 4.08304Z" fill="#F7F4FB"/>
<path d="M20.0424 34.8031V21.5818H7.59883V34.8031H0.404907V3.20813H7.59883V15.7489H20.0424V3.20813H27.2363V34.8031H20.0424Z" fill="#F7F4FB"/>
</svg>
